<svg width="256" height="256" viewBox="0 0 256 256" fill="none" xmlns="http://www.w3.org/2000/svg">
<path d="M198.202 214.863H57.5107C26.5754 214.863 1.40625 189.694 1.40625 158.758C1.40625 129.956 23.2231 106.152 51.1966 103.008C58.719 67.1102 90.4945 40.8535 127.856 40.8535C165.221 40.8535 196.996 67.113 204.516 103.008C232.489 106.152 254.306 129.956 254.306 158.758C254.306 189.694 229.137 214.863 198.202 214.863Z" fill="#9CA3AC"/>
<path d="M139.776 144.742L162.515 122.003C165.808 118.713 165.808 113.374 162.515 110.083C159.221 106.79 153.888 106.79 150.595 110.083L127.856 132.822L105.118 110.083C101.827 106.79 96.488 106.79 93.1975 110.083C89.9042 113.374 89.9042 118.713 93.1975 122.003L115.936 144.742L93.1975 167.48C89.9042 170.771 89.9042 176.11 93.1975 179.4C94.8414 181.047 97.0023 181.87 99.1575 181.87C101.313 181.87 103.474 181.047 105.118 179.4L127.856 156.662L150.595 179.4C152.241 181.047 154.399 181.87 156.555 181.87C158.71 181.87 160.868 181.047 162.515 179.4C165.808 176.11 165.808 170.771 162.515 167.48L139.776 144.742Z" fill="white"/>
</svg>
