<svg xmlns="http://www.w3.org/2000/svg"  viewBox="0 0 96 96" width="96px" height="96px" baseProfile="basic"><path fill="#4d4dff" d="M63.149,83H32.82c-3.308,0-7.411-1.293-8.176-7.453c-0.005-0.045-0.01-0.09-0.014-0.135	l-3.622-46.178c-0.129-1.651,1.104-3.096,2.757-3.226c1.651-0.118,3.096,1.105,3.226,2.757l3.616,46.106	C30.854,76.789,31.282,77,32.82,77h30.329c1.882,0,1.972,0,2.263-2.363l3.597-45.871c0.13-1.651,1.551-2.894,3.226-2.757	c1.652,0.13,2.886,1.574,2.757,3.226l-3.603,45.937c-0.004,0.044-0.008,0.087-0.014,0.131C71.093,77.605,70.432,83,63.149,83z" opacity=".3"/><path fill="#4d4dff" d="M63.149,82H32.82c-4.225,0-6.642-2.213-7.183-6.576l-3.632-46.268	c-0.086-1.101,0.736-2.063,1.838-2.15c1.104-0.092,2.064,0.737,2.15,1.838l3.622,46.178C29.898,77.283,30.649,78,32.82,78h30.329	c2.594,0,2.935-0.627,3.263-3.307l3.594-45.85c0.086-1.102,1.067-1.91,2.15-1.838c1.102,0.087,1.924,1.05,1.838,2.15l-3.603,45.937	C69.948,78.722,68.771,82,63.149,82z" opacity=".3"/><path fill="#0fd2ff" d="M75,27H21c-1.657,0-3-1.343-3-3s1.343-3,3-3h54c1.657,0,3,1.343,3,3S76.657,27,75,27z" opacity=".3"/><path fill="#0fd2ff" d="M75,26H21c-1.104,0-2-0.896-2-2s0.896-2,2-2h54c1.104,0,2,0.896,2,2S76.104,26,75,26z" opacity=".3"/><path fill="#0fd2ff" d="M37.998,66c-1.598,0-2.925-1.259-2.995-2.87l-1-23c-0.072-1.655,1.212-3.055,2.867-3.127	c1.633-0.086,3.055,1.211,3.127,2.867l1,23c0.072,1.655-1.212,3.055-2.867,3.127C38.086,65.999,38.042,66,37.998,66z" opacity=".3"/><path fill="#0fd2ff" d="M37.998,65c-1.064,0-1.949-0.839-1.996-1.913l-1-23	c-0.048-1.104,0.808-2.037,1.911-2.085c1.095-0.018,2.037,0.808,2.085,1.911l1,23c0.048,1.104-0.808,2.037-1.911,2.085	C38.058,64.999,38.027,65,37.998,65z" opacity=".3"/><path fill="#0fd2ff" d="M58.002,66c-0.044,0-0.088-0.001-0.132-0.003c-1.655-0.072-2.939-1.472-2.867-3.127l1-23	c0.072-1.656,1.493-2.941,3.127-2.867c1.655,0.072,2.939,1.472,2.867,3.127l-1,23C60.927,64.741,59.599,66,58.002,66z" opacity=".3"/><path fill="#0fd2ff" d="M58.002,65c-0.03,0-0.06-0.001-0.089-0.002c-1.104-0.048-1.959-0.981-1.911-2.085l1-23	c0.048-1.104,1.02-1.943,2.085-1.911c1.104,0.048,1.959,0.981,1.911,2.085l-1,23C59.951,64.161,59.066,65,58.002,65z" opacity=".3"/><path fill="#0fd2ff" d="M48,66c-1.657,0-3-1.343-3-3V40c0-1.657,1.343-3,3-3s3,1.343,3,3v23	C51,64.657,49.657,66,48,66z" opacity=".3"/><path fill="#0fd2ff" d="M48,65c-1.104,0-2-0.896-2-2V40c0-1.104,0.896-2,2-2s2,0.896,2,2v23	C50,64.104,49.104,65,48,65z" opacity=".3"/><path fill="#0fd2ff" d="M58.003,22c-0.06,0-0.119-0.002-0.179-0.005c-1.654-0.098-2.916-1.518-2.819-3.171	c0.023-0.396-0.011-0.622-0.037-0.729c-0.122-0.041-0.403-0.106-0.918-0.095H42c-0.474,0-0.786,0.038-0.979,0.075	C41,18.347,41,18.722,41,19c0,1.657-1.343,3-3,3s-3-1.343-3-3c0-1.731,0-7,7-7h12c2.277-0.012,4.062,0.611,5.324,1.929	c1.237,1.29,1.8,3.056,1.671,5.247C60.901,20.771,59.579,22,58.003,22z M55.047,18.126L55.047,18.126L55.047,18.126z" opacity=".3"/><path fill="#0fd2ff" d="M58.002,21c-0.04,0-0.079-0.001-0.119-0.004c-1.103-0.064-1.944-1.011-1.879-2.113	c0.042-0.726-0.061-1.256-0.289-1.494c-0.249-0.261-0.854-0.402-1.682-0.389H42c-2,0-2,0.037-2,2c0,1.104-0.896,2-2,2s-2-0.896-2-2	c0-1.947,0-6,6-6h12c1.999-0.029,3.54,0.513,4.603,1.62c1.037,1.082,1.506,2.595,1.394,4.497C59.935,20.18,59.053,21,58.002,21z" opacity=".3"/><path fill="#4d4dff" d="M63.149,81H32.82c-3.689,0-5.715-1.864-6.19-5.699l-3.627-46.223	c-0.043-0.551,0.368-1.032,0.919-1.075c0.544-0.04,1.032,0.367,1.075,0.919L28.619,75.1c0.353,2.831,1.492,3.9,4.201,3.9h30.329	c3.389,0,3.898-1.275,4.256-4.186l3.598-45.893c0.043-0.552,0.531-0.958,1.075-0.919c0.551,0.043,0.962,0.524,0.919,1.075	l-3.603,45.937C69.021,78.064,68.236,81,63.149,81z"/><path fill="#0fd2ff" d="M75,25H21c-0.553,0-1-0.447-1-1s0.447-1,1-1h54c0.553,0,1,0.447,1,1S75.553,25,75,25z"/><path fill="#0fd2ff" d="M37.999,64c-0.532,0-0.975-0.42-0.998-0.957l-1-23c-0.024-0.552,0.404-1.018,0.956-1.042	c0.559-0.032,1.018,0.404,1.042,0.956l1,23c0.024,0.552-0.404,1.018-0.956,1.042C38.028,64,38.014,64,37.999,64z"/><path fill="#0fd2ff" d="M58.001,64c-0.015,0-0.029,0-0.044-0.001c-0.552-0.024-0.98-0.49-0.956-1.042l1-23	c0.024-0.552,0.498-0.986,1.042-0.956c0.552,0.024,0.98,0.49,0.956,1.042l-1,23C58.976,63.58,58.533,64,58.001,64z"/><path fill="#0fd2ff" d="M48,64c-0.553,0-1-0.447-1-1V40c0-0.553,0.447-1,1-1s1,0.447,1,1v23C49,63.553,48.553,64,48,64z"/><path fill="#0fd2ff" d="M58.001,20c-0.02,0-0.04-0.001-0.06-0.002c-0.552-0.032-0.972-0.506-0.939-1.057	c0.061-1.035-0.13-1.79-0.565-2.245c-0.461-0.481-1.294-0.714-2.42-0.696H42c-3,0-3,1.003-3,3c0,0.553-0.447,1-1,1s-1-0.447-1-1	c0-1.991,0-5,5-5h12c1.722-0.028,3.019,0.414,3.881,1.313c0.836,0.872,1.212,2.133,1.117,3.746C58.967,19.59,58.526,20,58.001,20z"/></svg>