<svg width="16" height="12" viewBox="0 0 16 12" fill="none" xmlns="http://www.w3.org/2000/svg">
<path d="M2.35281 0.333671C2.53936 0.147761 2.83968 0.157851 3.02591 0.344091C3.22983 0.548001 3.21706 0.880951 3.01461 1.08633C1.76882 2.35014 1 4.08537 1 6.00019C1 7.99029 1.83047 9.78639 3.16377 11.0609C3.37638 11.2642 3.39483 11.6054 3.18685 11.8133C3.00478 11.9954 2.71256 12.0094 2.52487 11.8331C0.97073 10.3738 0 8.30029 0 6.00019C0 3.78613 0.89942 1.78215 2.35281 0.333671Z" fill="white"/>
<path d="M12.9858 1.08633C12.7833 0.880951 12.7706 0.548001 12.9745 0.344091C13.1607 0.157851 13.461 0.147761 13.6476 0.333671C15.101 1.78215 16.0004 3.78613 16.0004 6.00019C16.0004 8.30029 15.0297 10.3738 13.4755 11.8331C13.2878 12.0094 12.9956 11.9954 12.8136 11.8133C12.6056 11.6054 12.624 11.2642 12.8366 11.0609C14.1699 9.78639 15.0004 7.99029 15.0004 6.00019C15.0004 4.08537 14.2316 2.35014 12.9858 1.08633Z" fill="white"/>
<path d="M4.13159 2.0903C4.31407 1.90973 4.60608 1.92403 4.78761 2.10556C4.99573 2.31368 4.97537 2.6551 4.7704 2.86631C3.98409 3.67655 3.5 4.78172 3.5 5.99995C3.5 7.2905 4.04324 8.4541 4.91351 9.2747C5.13387 9.4824 5.16356 9.8364 4.9494 10.0505C4.77419 10.2258 4.49437 10.2453 4.31064 10.0791C3.19861 9.0727 2.5 7.6179 2.5 5.99995C2.5 4.47068 3.12414 3.08719 4.13159 2.0903Z" fill="white"/>
<path d="M11.2292 2.86631C11.0242 2.6551 11.0039 2.31368 11.212 2.10556C11.3935 1.92403 11.6855 1.90973 11.868 2.0903C12.8755 3.08718 13.4996 4.47068 13.4996 5.99995C13.4996 7.6179 12.801 9.0727 11.689 10.0791C11.5052 10.2453 11.2254 10.2258 11.0502 10.0505C10.836 9.8364 10.8657 9.4824 11.0861 9.2747C11.9564 8.4541 12.4996 7.2905 12.4996 5.99995C12.4996 4.78172 12.0155 3.67655 11.2292 2.86631Z" fill="white"/>
<path d="M8 4.75C7.30964 4.75 6.75 5.30964 6.75 6C6.75 6.6904 7.30964 7.25 8 7.25C8.6904 7.25 9.25 6.6904 9.25 6C9.25 5.30964 8.6904 4.75 8 4.75Z" fill="white"/>
</svg>
