<svg width="12" height="12" viewBox="0 0 12 12" fill="none" xmlns="http://www.w3.org/2000/svg">
<path d="M0.267201 4.15303C0.528921 3.34709 0.960051 2.60729 1.52892 1.98033C1.62511 1.87431 1.77603 1.83652 1.91115 1.88463L3.27063 2.36863C3.6392 2.49978 4.04476 2.30859 4.17647 1.9416C4.18942 1.90551 4.1994 1.86844 4.20629 1.8308L4.46529 0.415273C4.49104 0.274533 4.5996 0.163203 4.74013 0.133413C5.15131 0.0462731 5.57289 0.00195312 6 0.00195312C6.42685 0.00195312 6.84818 0.0462231 7.25912 0.133253C7.39961 0.163013 7.50816 0.274273 7.53397 0.414963L7.7937 1.83074C7.86392 2.21413 8.23294 2.46825 8.61804 2.39834C8.65594 2.39146 8.69314 2.38153 8.72934 2.36865L10.0888 1.88463C10.2239 1.83652 10.3748 1.87431 10.471 1.98033C11.0399 2.60729 11.471 3.34709 11.7328 4.15303C11.7769 4.28899 11.7343 4.43805 11.6249 4.53053L10.523 5.46205C10.2247 5.7143 10.1882 6.15961 10.4415 6.45668C10.4664 6.48589 10.4937 6.51303 10.523 6.53782L11.6249 7.46935C11.7343 7.56183 11.7769 7.71089 11.7328 7.84686C11.471 8.65284 11.0399 9.39264 10.471 10.0195C10.3748 10.1255 10.2239 10.1633 10.0888 10.1152L8.72934 9.63124C8.36084 9.50014 7.95524 9.69134 7.82353 10.0582C7.81058 10.0943 7.8006 10.1314 7.79368 10.1692L7.53397 11.5849C7.50816 11.7256 7.39961 11.8368 7.25912 11.8666C6.84818 11.9536 6.42685 11.9979 6 11.9979C5.57289 11.9979 5.15131 11.9536 4.74013 11.8664C4.5996 11.8366 4.49104 11.7253 4.46529 11.5846L4.2063 10.1691C4.13608 9.78574 3.76702 9.53164 3.38197 9.60154C3.3441 9.60844 3.30687 9.61834 3.27069 9.63124L1.91115 10.1152C1.77603 10.1633 1.62511 10.1255 1.52892 10.0195C0.960051 9.39264 0.528921 8.65284 0.267201 7.84686C0.223051 7.71089 0.265621 7.56183 0.375031 7.46935L1.47693 6.53783C1.77528 6.28558 1.81177 5.84027 1.55844 5.5432C1.53353 5.51399 1.50627 5.48685 1.47694 5.46206L0.375031 4.53053C0.265621 4.43805 0.223051 4.28899 0.267201 4.15303ZM4.24988 5.99988C4.24988 6.96638 5.03338 7.74988 5.99988 7.74988C6.96638 7.74988 7.74988 6.96638 7.74988 5.99988C7.74988 5.03338 6.96638 4.24988 5.99988 4.24988C5.03338 4.24988 4.24988 5.03338 4.24988 5.99988Z" fill="white"/>
</svg>
